<?xml version="1.0" encoding="UTF-8" standalone="no"?>
<!DOCTYPE svg PUBLIC "-//W3C//DTD SVG 1.1//EN"
 "http://www.w3.org/Graphics/SVG/1.1/DTD/svg11.dtd">
<!-- Generated by graphviz version 2.38.0 (20140413.2041)
 -->
<!-- Title: snakemake_dag Pages: 1 -->
<svg width="665pt" height="404pt"
 viewBox="0.00 0.00 665.00 404.00" xmlns="http://www.w3.org/2000/svg" xmlns:xlink="http://www.w3.org/1999/xlink">
<g id="graph0" class="graph" transform="scale(1 1) rotate(0) translate(4 400)">
<title>snakemake_dag</title>
<polygon fill="white" stroke="none" points="-4,4 -4,-400 661,-400 661,4 -4,4"/>
<!-- 0 -->
<g id="node1" class="node"><title>0</title>
<path fill="none" stroke="#5682d8" stroke-width="2" d="M316,-396C316,-396 233,-396 233,-396 227,-396 221,-390 221,-384 221,-384 221,-372 221,-372 221,-366 227,-360 233,-360 233,-360 316,-360 316,-360 322,-360 328,-366 328,-372 328,-372 328,-384 328,-384 328,-390 322,-396 316,-396"/>
<text text-anchor="middle" x="274.5" y="-375.5" font-family="sans" font-size="10.00">get_genome_fasta</text>
</g>
<!-- 6 -->
<g id="node7" class="node"><title>6</title>
<path fill="none" stroke="#56b1d8" stroke-width="2" d="M307,-324C307,-324 242,-324 242,-324 236,-324 230,-318 230,-312 230,-312 230,-300 230,-300 230,-294 236,-288 242,-288 242,-288 307,-288 307,-288 313,-288 319,-294 319,-300 319,-300 319,-312 319,-312 319,-318 313,-324 307,-324"/>
<text text-anchor="middle" x="274.5" y="-303.5" font-family="sans" font-size="10.00">index_genome</text>
</g>
<!-- 0&#45;&gt;6 -->
<g id="edge12" class="edge"><title>0&#45;&gt;6</title>
<path fill="none" stroke="grey" stroke-width="2" d="M274.5,-359.697C274.5,-351.983 274.5,-342.712 274.5,-334.112"/>
<polygon fill="grey" stroke="grey" stroke-width="2" points="278,-334.104 274.5,-324.104 271,-334.104 278,-334.104"/>
</g>
<!-- 1 -->
<g id="node2" class="node"><title>1</title>
<path fill="none" stroke="#d88556" stroke-width="2" d="M303.5,-180C303.5,-180 265.5,-180 265.5,-180 259.5,-180 253.5,-174 253.5,-168 253.5,-168 253.5,-156 253.5,-156 253.5,-150 259.5,-144 265.5,-144 265.5,-144 303.5,-144 303.5,-144 309.5,-144 315.5,-150 315.5,-156 315.5,-156 315.5,-168 315.5,-168 315.5,-174 309.5,-180 303.5,-180"/>
<text text-anchor="middle" x="284.5" y="-159.5" font-family="sans" font-size="10.00">sort_bam</text>
</g>
<!-- 4 -->
<g id="node5" class="node"><title>4</title>
<path fill="none" stroke="#d8b456" stroke-width="2" d="M333.5,-108C333.5,-108 235.5,-108 235.5,-108 229.5,-108 223.5,-102 223.5,-96 223.5,-96 223.5,-84 223.5,-84 223.5,-78 229.5,-72 235.5,-72 235.5,-72 333.5,-72 333.5,-72 339.5,-72 345.5,-78 345.5,-84 345.5,-84 345.5,-96 345.5,-96 345.5,-102 339.5,-108 333.5,-108"/>
<text text-anchor="middle" x="284.5" y="-87.5" font-family="sans" font-size="10.00">generate_count_table</text>
</g>
<!-- 1&#45;&gt;4 -->
<g id="edge5" class="edge"><title>1&#45;&gt;4</title>
<path fill="none" stroke="grey" stroke-width="2" d="M284.5,-143.697C284.5,-135.983 284.5,-126.712 284.5,-118.112"/>
<polygon fill="grey" stroke="grey" stroke-width="2" points="288,-118.104 284.5,-108.104 281,-118.104 288,-118.104"/>
</g>
<!-- 2 -->
<g id="node3" class="node"><title>2</title>
<path fill="none" stroke="#9fd856" stroke-width="2" d="M432,-252C432,-252 355,-252 355,-252 349,-252 343,-246 343,-240 343,-240 343,-228 343,-228 343,-222 349,-216 355,-216 355,-216 432,-216 432,-216 438,-216 444,-222 444,-228 444,-228 444,-240 444,-240 444,-246 438,-252 432,-252"/>
<text text-anchor="middle" x="393.5" y="-231.5" font-family="sans" font-size="10.00">align_to_genome</text>
</g>
<!-- 12 -->
<g id="node13" class="node"><title>12</title>
<path fill="none" stroke="#d88556" stroke-width="2" d="M402.5,-180C402.5,-180 364.5,-180 364.5,-180 358.5,-180 352.5,-174 352.5,-168 352.5,-168 352.5,-156 352.5,-156 352.5,-150 358.5,-144 364.5,-144 364.5,-144 402.5,-144 402.5,-144 408.5,-144 414.5,-150 414.5,-156 414.5,-156 414.5,-168 414.5,-168 414.5,-174 408.5,-180 402.5,-180"/>
<text text-anchor="middle" x="383.5" y="-159.5" font-family="sans" font-size="10.00">sort_bam</text>
</g>
<!-- 2&#45;&gt;12 -->
<g id="edge21" class="edge"><title>2&#45;&gt;12</title>
<path fill="none" stroke="grey" stroke-width="2" d="M391.028,-215.697C389.926,-207.983 388.602,-198.712 387.373,-190.112"/>
<polygon fill="grey" stroke="grey" stroke-width="2" points="390.823,-189.509 385.943,-180.104 383.893,-190.499 390.823,-189.509"/>
</g>
<!-- 3 -->
<g id="node4" class="node"><title>3</title>
<path fill="none" stroke="#56d86b" stroke-width="2" d="M537,-252C537,-252 474,-252 474,-252 468,-252 462,-246 462,-240 462,-240 462,-228 462,-228 462,-222 468,-216 474,-216 474,-216 537,-216 537,-216 543,-216 549,-222 549,-228 549,-228 549,-240 549,-240 549,-246 543,-252 537,-252"/>
<text text-anchor="middle" x="505.5" y="-237" font-family="sans" font-size="10.00">fastqc</text>
<text text-anchor="middle" x="505.5" y="-226" font-family="sans" font-size="10.00">id: SRR935090</text>
</g>
<!-- 5 -->
<g id="node6" class="node"><title>5</title>
<path fill="none" stroke="#ced856" stroke-width="2" d="M502.5,-180C502.5,-180 472.5,-180 472.5,-180 466.5,-180 460.5,-174 460.5,-168 460.5,-168 460.5,-156 460.5,-156 460.5,-150 466.5,-144 472.5,-144 472.5,-144 502.5,-144 502.5,-144 508.5,-144 514.5,-150 514.5,-156 514.5,-156 514.5,-168 514.5,-168 514.5,-174 508.5,-180 502.5,-180"/>
<text text-anchor="middle" x="487.5" y="-159.5" font-family="sans" font-size="10.00">multiqc</text>
</g>
<!-- 3&#45;&gt;5 -->
<g id="edge11" class="edge"><title>3&#45;&gt;5</title>
<path fill="none" stroke="grey" stroke-width="2" d="M501.051,-215.697C499.045,-207.898 496.631,-198.509 494.399,-189.829"/>
<polygon fill="grey" stroke="grey" stroke-width="2" points="497.778,-188.918 491.898,-180.104 490.999,-190.661 497.778,-188.918"/>
</g>
<!-- 11 -->
<g id="node12" class="node"><title>11</title>
<path fill="none" stroke="#56d89a" stroke-width="2" d="M445.5,-36C445.5,-36 415.5,-36 415.5,-36 409.5,-36 403.5,-30 403.5,-24 403.5,-24 403.5,-12 403.5,-12 403.5,-6 409.5,-0 415.5,-0 415.5,-0 445.5,-0 445.5,-0 451.5,-0 457.5,-6 457.5,-12 457.5,-12 457.5,-24 457.5,-24 457.5,-30 451.5,-36 445.5,-36"/>
<text text-anchor="middle" x="430.5" y="-15.5" font-family="sans" font-size="10.00">all</text>
</g>
<!-- 4&#45;&gt;11 -->
<g id="edge19" class="edge"><title>4&#45;&gt;11</title>
<path fill="none" stroke="grey" stroke-width="2" d="M320.216,-71.8761C342.671,-61.1096 371.561,-47.2583 394.139,-36.4334"/>
<polygon fill="grey" stroke="grey" stroke-width="2" points="395.887,-39.4767 403.391,-31.9973 392.861,-33.1646 395.887,-39.4767"/>
</g>
<!-- 5&#45;&gt;11 -->
<g id="edge20" class="edge"><title>5&#45;&gt;11</title>
<path fill="none" stroke="grey" stroke-width="2" d="M472.516,-143.973C464.563,-134.091 455.267,-121.048 449.5,-108 440.784,-88.2813 435.962,-64.2977 433.358,-46.198"/>
<polygon fill="grey" stroke="grey" stroke-width="2" points="436.798,-45.5052 432.039,-36.0392 429.856,-46.4066 436.798,-45.5052"/>
</g>
<!-- 6&#45;&gt;2 -->
<g id="edge2" class="edge"><title>6&#45;&gt;2</title>
<path fill="none" stroke="grey" stroke-width="2" d="M303.611,-287.876C319.17,-278.724 338.519,-267.342 355.276,-257.485"/>
<polygon fill="grey" stroke="grey" stroke-width="2" points="357.433,-260.277 364.277,-252.19 353.883,-254.243 357.433,-260.277"/>
</g>
<!-- 8 -->
<g id="node9" class="node"><title>8</title>
<path fill="none" stroke="#9fd856" stroke-width="2" d="M194,-252C194,-252 117,-252 117,-252 111,-252 105,-246 105,-240 105,-240 105,-228 105,-228 105,-222 111,-216 117,-216 117,-216 194,-216 194,-216 200,-216 206,-222 206,-228 206,-228 206,-240 206,-240 206,-246 200,-252 194,-252"/>
<text text-anchor="middle" x="155.5" y="-231.5" font-family="sans" font-size="10.00">align_to_genome</text>
</g>
<!-- 6&#45;&gt;8 -->
<g id="edge14" class="edge"><title>6&#45;&gt;8</title>
<path fill="none" stroke="grey" stroke-width="2" d="M245.389,-287.876C229.83,-278.724 210.481,-267.342 193.724,-257.485"/>
<polygon fill="grey" stroke="grey" stroke-width="2" points="195.117,-254.243 184.723,-252.19 191.567,-260.277 195.117,-254.243"/>
</g>
<!-- 9 -->
<g id="node10" class="node"><title>9</title>
<path fill="none" stroke="#9fd856" stroke-width="2" d="M313,-252C313,-252 236,-252 236,-252 230,-252 224,-246 224,-240 224,-240 224,-228 224,-228 224,-222 230,-216 236,-216 236,-216 313,-216 313,-216 319,-216 325,-222 325,-228 325,-228 325,-240 325,-240 325,-246 319,-252 313,-252"/>
<text text-anchor="middle" x="274.5" y="-231.5" font-family="sans" font-size="10.00">align_to_genome</text>
</g>
<!-- 6&#45;&gt;9 -->
<g id="edge16" class="edge"><title>6&#45;&gt;9</title>
<path fill="none" stroke="grey" stroke-width="2" d="M274.5,-287.697C274.5,-279.983 274.5,-270.712 274.5,-262.112"/>
<polygon fill="grey" stroke="grey" stroke-width="2" points="278,-262.104 274.5,-252.104 271,-262.104 278,-262.104"/>
</g>
<!-- 7 -->
<g id="node8" class="node"><title>7</title>
<path fill="none" stroke="#d88556" stroke-width="2" d="M223.5,-180C223.5,-180 185.5,-180 185.5,-180 179.5,-180 173.5,-174 173.5,-168 173.5,-168 173.5,-156 173.5,-156 173.5,-150 179.5,-144 185.5,-144 185.5,-144 223.5,-144 223.5,-144 229.5,-144 235.5,-150 235.5,-156 235.5,-156 235.5,-168 235.5,-168 235.5,-174 229.5,-180 223.5,-180"/>
<text text-anchor="middle" x="204.5" y="-159.5" font-family="sans" font-size="10.00">sort_bam</text>
</g>
<!-- 7&#45;&gt;4 -->
<g id="edge7" class="edge"><title>7&#45;&gt;4</title>
<path fill="none" stroke="grey" stroke-width="2" d="M224.275,-143.697C234.254,-134.965 246.511,-124.24 257.357,-114.75"/>
<polygon fill="grey" stroke="grey" stroke-width="2" points="259.731,-117.323 264.952,-108.104 255.122,-112.055 259.731,-117.323"/>
</g>
<!-- 8&#45;&gt;7 -->
<g id="edge13" class="edge"><title>8&#45;&gt;7</title>
<path fill="none" stroke="grey" stroke-width="2" d="M167.612,-215.697C173.368,-207.474 180.362,-197.483 186.706,-188.421"/>
<polygon fill="grey" stroke="grey" stroke-width="2" points="189.66,-190.304 192.527,-180.104 183.925,-186.29 189.66,-190.304"/>
</g>
<!-- 9&#45;&gt;1 -->
<g id="edge1" class="edge"><title>9&#45;&gt;1</title>
<path fill="none" stroke="grey" stroke-width="2" d="M276.972,-215.697C278.074,-207.983 279.398,-198.712 280.627,-190.112"/>
<polygon fill="grey" stroke="grey" stroke-width="2" points="284.107,-190.499 282.057,-180.104 277.177,-189.509 284.107,-190.499"/>
</g>
<!-- 10 -->
<g id="node11" class="node"><title>10</title>
<path fill="none" stroke="#70d856" stroke-width="2" d="M558.5,-108C558.5,-108 470.5,-108 470.5,-108 464.5,-108 458.5,-102 458.5,-96 458.5,-96 458.5,-84 458.5,-84 458.5,-78 464.5,-72 470.5,-72 470.5,-72 558.5,-72 558.5,-72 564.5,-72 570.5,-78 570.5,-84 570.5,-84 570.5,-96 570.5,-96 570.5,-102 564.5,-108 558.5,-108"/>
<text text-anchor="middle" x="514.5" y="-87.5" font-family="sans" font-size="10.00">generate_rulegraph</text>
</g>
<!-- 10&#45;&gt;11 -->
<g id="edge18" class="edge"><title>10&#45;&gt;11</title>
<path fill="none" stroke="grey" stroke-width="2" d="M493.736,-71.6966C483.259,-62.9655 470.389,-52.2405 459,-42.7503"/>
<polygon fill="grey" stroke="grey" stroke-width="2" points="460.948,-39.8174 451.025,-36.1043 456.467,-45.195 460.948,-39.8174"/>
</g>
<!-- 12&#45;&gt;4 -->
<g id="edge6" class="edge"><title>12&#45;&gt;4</title>
<path fill="none" stroke="grey" stroke-width="2" d="M359.282,-143.876C346.577,-134.893 330.836,-123.763 317.077,-114.034"/>
<polygon fill="grey" stroke="grey" stroke-width="2" points="318.997,-111.105 308.811,-108.19 314.956,-116.821 318.997,-111.105"/>
</g>
<!-- 13 -->
<g id="node14" class="node"><title>13</title>
<path fill="none" stroke="#56d86b" stroke-width="2" d="M75,-252C75,-252 12,-252 12,-252 6,-252 0,-246 0,-240 0,-240 0,-228 0,-228 0,-222 6,-216 12,-216 12,-216 75,-216 75,-216 81,-216 87,-222 87,-228 87,-228 87,-240 87,-240 87,-246 81,-252 75,-252"/>
<text text-anchor="middle" x="43.5" y="-237" font-family="sans" font-size="10.00">fastqc</text>
<text text-anchor="middle" x="43.5" y="-226" font-family="sans" font-size="10.00">id: SRR935091</text>
</g>
<!-- 13&#45;&gt;5 -->
<g id="edge10" class="edge"><title>13&#45;&gt;5</title>
<path fill="none" stroke="grey" stroke-width="2" d="M87.013,-218.052C89.8682,-217.295 92.7148,-216.601 95.5,-216 238.85,-185.05 279.335,-206.901 423.5,-180 432.273,-178.363 441.61,-176.156 450.362,-173.875"/>
<polygon fill="grey" stroke="grey" stroke-width="2" points="451.557,-177.177 460.299,-171.192 449.733,-170.419 451.557,-177.177"/>
</g>
<!-- 14 -->
<g id="node15" class="node"><title>14</title>
<path fill="none" stroke="#56d86b" stroke-width="2" d="M642,-252C642,-252 579,-252 579,-252 573,-252 567,-246 567,-240 567,-240 567,-228 567,-228 567,-222 573,-216 579,-216 579,-216 642,-216 642,-216 648,-216 654,-222 654,-228 654,-228 654,-240 654,-240 654,-246 648,-252 642,-252"/>
<text text-anchor="middle" x="610.5" y="-237" font-family="sans" font-size="10.00">fastqc</text>
<text text-anchor="middle" x="610.5" y="-226" font-family="sans" font-size="10.00">id: SRR935092</text>
</g>
<!-- 14&#45;&gt;5 -->
<g id="edge9" class="edge"><title>14&#45;&gt;5</title>
<path fill="none" stroke="grey" stroke-width="2" d="M580.411,-215.876C563.332,-206.156 541.835,-193.922 523.821,-183.671"/>
<polygon fill="grey" stroke="grey" stroke-width="2" points="525.183,-180.419 514.761,-178.514 521.721,-186.502 525.183,-180.419"/>
</g>
<!-- 15 -->
<g id="node16" class="node"><title>15</title>
<path fill="none" stroke="#d85656" stroke-width="2" d="M645,-324C645,-324 542,-324 542,-324 536,-324 530,-318 530,-312 530,-312 530,-300 530,-300 530,-294 536,-288 542,-288 542,-288 645,-288 645,-288 651,-288 657,-294 657,-300 657,-300 657,-312 657,-312 657,-318 651,-324 645,-324"/>
<text text-anchor="middle" x="593.5" y="-309" font-family="sans" font-size="10.00">get_SRA_by_accession</text>
<text text-anchor="middle" x="593.5" y="-298" font-family="sans" font-size="10.00">sra_id: SRR935092</text>
</g>
<!-- 15&#45;&gt;2 -->
<g id="edge3" class="edge"><title>15&#45;&gt;2</title>
<path fill="none" stroke="grey" stroke-width="2" d="M544.83,-287.966C516.886,-278.185 481.604,-265.836 452.139,-255.524"/>
<polygon fill="grey" stroke="grey" stroke-width="2" points="452.983,-252.111 442.388,-252.111 450.67,-258.718 452.983,-252.111"/>
</g>
<!-- 15&#45;&gt;14 -->
<g id="edge23" class="edge"><title>15&#45;&gt;14</title>
<path fill="none" stroke="grey" stroke-width="2" d="M597.702,-287.697C599.596,-279.898 601.877,-270.509 603.984,-261.829"/>
<polygon fill="grey" stroke="grey" stroke-width="2" points="607.387,-262.648 606.346,-252.104 600.585,-260.996 607.387,-262.648"/>
</g>
<!-- 16 -->
<g id="node17" class="node"><title>16</title>
<path fill="none" stroke="#d85656" stroke-width="2" d="M148,-324C148,-324 45,-324 45,-324 39,-324 33,-318 33,-312 33,-312 33,-300 33,-300 33,-294 39,-288 45,-288 45,-288 148,-288 148,-288 154,-288 160,-294 160,-300 160,-300 160,-312 160,-312 160,-318 154,-324 148,-324"/>
<text text-anchor="middle" x="96.5" y="-309" font-family="sans" font-size="10.00">get_SRA_by_accession</text>
<text text-anchor="middle" x="96.5" y="-298" font-family="sans" font-size="10.00">sra_id: SRR935091</text>
</g>
<!-- 16&#45;&gt;8 -->
<g id="edge15" class="edge"><title>16&#45;&gt;8</title>
<path fill="none" stroke="grey" stroke-width="2" d="M111.084,-287.697C118.158,-279.305 126.783,-269.07 134.545,-259.861"/>
<polygon fill="grey" stroke="grey" stroke-width="2" points="137.315,-262.006 141.083,-252.104 131.963,-257.495 137.315,-262.006"/>
</g>
<!-- 16&#45;&gt;13 -->
<g id="edge22" class="edge"><title>16&#45;&gt;13</title>
<path fill="none" stroke="grey" stroke-width="2" d="M83.3989,-287.697C77.1091,-279.389 69.4526,-269.277 62.5351,-260.141"/>
<polygon fill="grey" stroke="grey" stroke-width="2" points="65.2773,-257.964 56.4504,-252.104 59.6964,-262.19 65.2773,-257.964"/>
</g>
<!-- 17 -->
<g id="node18" class="node"><title>17</title>
<path fill="none" stroke="#d85656" stroke-width="2" d="M484,-324C484,-324 381,-324 381,-324 375,-324 369,-318 369,-312 369,-312 369,-300 369,-300 369,-294 375,-288 381,-288 381,-288 484,-288 484,-288 490,-288 496,-294 496,-300 496,-300 496,-312 496,-312 496,-318 490,-324 484,-324"/>
<text text-anchor="middle" x="432.5" y="-309" font-family="sans" font-size="10.00">get_SRA_by_accession</text>
<text text-anchor="middle" x="432.5" y="-298" font-family="sans" font-size="10.00">sra_id: SRR935090</text>
</g>
<!-- 17&#45;&gt;3 -->
<g id="edge4" class="edge"><title>17&#45;&gt;3</title>
<path fill="none" stroke="grey" stroke-width="2" d="M450.545,-287.697C459.562,-279.05 470.618,-268.449 480.443,-259.027"/>
<polygon fill="grey" stroke="grey" stroke-width="2" points="482.867,-261.552 487.663,-252.104 478.022,-256.499 482.867,-261.552"/>
</g>
<!-- 17&#45;&gt;9 -->
<g id="edge17" class="edge"><title>17&#45;&gt;9</title>
<path fill="none" stroke="grey" stroke-width="2" d="M393.849,-287.876C372.249,-278.307 345.149,-266.3 322.234,-256.148"/>
<polygon fill="grey" stroke="grey" stroke-width="2" points="323.586,-252.919 313.026,-252.068 320.751,-259.319 323.586,-252.919"/>
</g>
<!-- 18 -->
<g id="node19" class="node"><title>18</title>
<path fill="none" stroke="#56d8c9" stroke-width="2" d="M143,-180C143,-180 66,-180 66,-180 60,-180 54,-174 54,-168 54,-168 54,-156 54,-156 54,-150 60,-144 66,-144 66,-144 143,-144 143,-144 149,-144 155,-150 155,-156 155,-156 155,-168 155,-168 155,-174 149,-180 143,-180"/>
<text text-anchor="middle" x="104.5" y="-159.5" font-family="sans" font-size="10.00">get_genome_gff3</text>
</g>
<!-- 18&#45;&gt;4 -->
<g id="edge8" class="edge"><title>18&#45;&gt;4</title>
<path fill="none" stroke="grey" stroke-width="2" d="M148.533,-143.876C173.468,-134.179 204.838,-121.98 231.162,-111.743"/>
<polygon fill="grey" stroke="grey" stroke-width="2" points="232.559,-114.955 240.61,-108.068 230.021,-108.431 232.559,-114.955"/>
</g>
</g>
</svg>
