<?xml version="1.0" encoding="UTF-8" standalone="no"?>
<!DOCTYPE svg PUBLIC "-//W3C//DTD SVG 1.1//EN"
 "http://www.w3.org/Graphics/SVG/1.1/DTD/svg11.dtd">
<!-- Generated by graphviz version 2.38.0 (20140413.2041)
 -->
<!-- Title: snakemake_dag Pages: 1 -->
<svg width="348pt" height="404pt"
 viewBox="0.00 0.00 347.73 404.00" xmlns="http://www.w3.org/2000/svg" xmlns:xlink="http://www.w3.org/1999/xlink">
<g id="graph0" class="graph" transform="scale(1 1) rotate(0) translate(4 400)">
<title>snakemake_dag</title>
<polygon fill="white" stroke="none" points="-4,4 -4,-400 343.733,-400 343.733,4 -4,4"/>
<!-- 0 -->
<g id="node1" class="node"><title>0</title>
<path fill="none" stroke="#d88556" stroke-width="2" d="M205.695,-36C205.695,-36 118.482,-36 118.482,-36 112.482,-36 106.482,-30 106.482,-24 106.482,-24 106.482,-12 106.482,-12 106.482,-6 112.482,-0 118.482,-0 118.482,-0 205.695,-0 205.695,-0 211.695,-0 217.695,-6 217.695,-12 217.695,-12 217.695,-24 217.695,-24 217.695,-30 211.695,-36 205.695,-36"/>
<text text-anchor="middle" x="162.088" y="-15" font-family="sans" font-size="10.00">make_supplementary</text>
</g>
<!-- 1 -->
<g id="node2" class="node"><title>1</title>
<path fill="none" stroke="#d6d856" stroke-width="2" d="M206.337,-108C206.337,-108 117.84,-108 117.84,-108 111.84,-108 105.84,-102 105.84,-96 105.84,-96 105.84,-84 105.84,-84 105.84,-78 111.84,-72 117.84,-72 117.84,-72 206.337,-72 206.337,-72 212.337,-72 218.337,-78 218.337,-84 218.337,-84 218.337,-96 218.337,-96 218.337,-102 212.337,-108 206.337,-108"/>
<text text-anchor="middle" x="162.088" y="-87" font-family="sans" font-size="10.00">generate_count_table</text>
</g>
<!-- 1&#45;&gt;0 -->
<g id="edge3" class="edge"><title>1&#45;&gt;0</title>
<path fill="none" stroke="grey" stroke-width="2" d="M162.088,-71.6966C162.088,-63.9827 162.088,-54.7125 162.088,-46.1124"/>
<polygon fill="grey" stroke="grey" stroke-width="2" points="165.588,-46.1043 162.088,-36.1043 158.588,-46.1044 165.588,-46.1043"/>
</g>
<!-- 2 -->
<g id="node3" class="node"><title>2</title>
<path fill="none" stroke="#59d856" stroke-width="2" d="M327.879,-108C327.879,-108 248.298,-108 248.298,-108 242.298,-108 236.298,-102 236.298,-96 236.298,-96 236.298,-84 236.298,-84 236.298,-78 242.298,-72 248.298,-72 248.298,-72 327.879,-72 327.879,-72 333.879,-72 339.879,-78 339.879,-84 339.879,-84 339.879,-96 339.879,-96 339.879,-102 333.879,-108 327.879,-108"/>
<text text-anchor="middle" x="288.088" y="-87" font-family="sans" font-size="10.00">generate_rulegraph</text>
</g>
<!-- 2&#45;&gt;0 -->
<g id="edge2" class="edge"><title>2&#45;&gt;0</title>
<path fill="none" stroke="grey" stroke-width="2" d="M257.265,-71.8761C240.638,-62.6388 219.924,-51.1308 202.069,-41.2116"/>
<polygon fill="grey" stroke="grey" stroke-width="2" points="203.471,-37.9867 193.03,-36.1898 200.072,-44.1058 203.471,-37.9867"/>
</g>
<!-- 3 -->
<g id="node4" class="node"><title>3</title>
<path fill="none" stroke="#d8ac56" stroke-width="2" d="M76.0884,-108C76.0884,-108 46.0884,-108 46.0884,-108 40.0884,-108 34.0884,-102 34.0884,-96 34.0884,-96 34.0884,-84 34.0884,-84 34.0884,-78 40.0884,-72 46.0884,-72 46.0884,-72 76.0884,-72 76.0884,-72 82.0884,-72 88.0884,-78 88.0884,-84 88.0884,-84 88.0884,-96 88.0884,-96 88.0884,-102 82.0884,-108 76.0884,-108"/>
<text text-anchor="middle" x="61.0884" y="-87" font-family="sans" font-size="10.00">multiqc</text>
</g>
<!-- 3&#45;&gt;0 -->
<g id="edge1" class="edge"><title>3&#45;&gt;0</title>
<path fill="none" stroke="grey" stroke-width="2" d="M85.7958,-71.8761C98.757,-62.8931 114.817,-51.7625 128.853,-42.0341"/>
<polygon fill="grey" stroke="grey" stroke-width="2" points="131.061,-44.7628 137.286,-36.1898 127.073,-39.0095 131.061,-44.7628"/>
</g>
<!-- 4 -->
<g id="node5" class="node"><title>4</title>
<path fill="none" stroke="#56a9d8" stroke-width="2" d="M173.774,-180C173.774,-180 140.403,-180 140.403,-180 134.403,-180 128.403,-174 128.403,-168 128.403,-168 128.403,-156 128.403,-156 128.403,-150 134.403,-144 140.403,-144 140.403,-144 173.774,-144 173.774,-144 179.774,-144 185.774,-150 185.774,-156 185.774,-156 185.774,-168 185.774,-168 185.774,-174 179.774,-180 173.774,-180"/>
<text text-anchor="middle" x="157.088" y="-159" font-family="sans" font-size="10.00">sort_bam</text>
</g>
<!-- 4&#45;&gt;1 -->
<g id="edge5" class="edge"><title>4&#45;&gt;1</title>
<path fill="none" stroke="grey" stroke-width="2" d="M158.324,-143.697C158.875,-135.983 159.537,-126.712 160.152,-118.112"/>
<polygon fill="grey" stroke="grey" stroke-width="2" points="163.645,-118.328 160.867,-108.104 156.663,-117.83 163.645,-118.328"/>
</g>
<!-- 5 -->
<g id="node6" class="node"><title>5</title>
<path fill="none" stroke="#d85656" stroke-width="2" d="M285.755,-180C285.755,-180 216.422,-180 216.422,-180 210.422,-180 204.422,-174 204.422,-168 204.422,-168 204.422,-156 204.422,-156 204.422,-150 210.422,-144 216.422,-144 216.422,-144 285.755,-144 285.755,-144 291.755,-144 297.755,-150 297.755,-156 297.755,-156 297.755,-168 297.755,-168 297.755,-174 291.755,-180 285.755,-180"/>
<text text-anchor="middle" x="251.088" y="-159" font-family="sans" font-size="10.00">get_genome_gff3</text>
</g>
<!-- 5&#45;&gt;1 -->
<g id="edge4" class="edge"><title>5&#45;&gt;1</title>
<path fill="none" stroke="grey" stroke-width="2" d="M229.088,-143.697C217.88,-134.881 204.086,-124.032 191.934,-114.474"/>
<polygon fill="grey" stroke="grey" stroke-width="2" points="193.859,-111.535 183.835,-108.104 189.532,-117.038 193.859,-111.535"/>
</g>
<!-- 6 -->
<g id="node7" class="node"><title>6</title>
<path fill="none" stroke="#afd856" stroke-width="2" d="M76.0884,-252C76.0884,-252 46.0884,-252 46.0884,-252 40.0884,-252 34.0884,-246 34.0884,-240 34.0884,-240 34.0884,-228 34.0884,-228 34.0884,-222 40.0884,-216 46.0884,-216 46.0884,-216 76.0884,-216 76.0884,-216 82.0884,-216 88.0884,-222 88.0884,-228 88.0884,-228 88.0884,-240 88.0884,-240 88.0884,-246 82.0884,-252 76.0884,-252"/>
<text text-anchor="middle" x="61.0884" y="-231" font-family="sans" font-size="10.00">fastqc</text>
</g>
<!-- 6&#45;&gt;3 -->
<g id="edge6" class="edge"><title>6&#45;&gt;3</title>
<path fill="none" stroke="grey" stroke-width="2" d="M61.0884,-215.871C61.0884,-191.67 61.0884,-147.211 61.0884,-118.393"/>
<polygon fill="grey" stroke="grey" stroke-width="2" points="64.5885,-118.189 61.0884,-108.189 57.5885,-118.189 64.5885,-118.189"/>
</g>
<!-- 7 -->
<g id="node8" class="node"><title>7</title>
<path fill="none" stroke="#56d8d8" stroke-width="2" d="M191.317,-252C191.317,-252 122.859,-252 122.859,-252 116.859,-252 110.859,-246 110.859,-240 110.859,-240 110.859,-228 110.859,-228 110.859,-222 116.859,-216 122.859,-216 122.859,-216 191.317,-216 191.317,-216 197.317,-216 203.317,-222 203.317,-228 203.317,-228 203.317,-240 203.317,-240 203.317,-246 197.317,-252 191.317,-252"/>
<text text-anchor="middle" x="157.088" y="-231" font-family="sans" font-size="10.00">align_to_genome</text>
</g>
<!-- 7&#45;&gt;4 -->
<g id="edge7" class="edge"><title>7&#45;&gt;4</title>
<path fill="none" stroke="grey" stroke-width="2" d="M157.088,-215.697C157.088,-207.983 157.088,-198.712 157.088,-190.112"/>
<polygon fill="grey" stroke="grey" stroke-width="2" points="160.588,-190.104 157.088,-180.104 153.588,-190.104 160.588,-190.104"/>
</g>
<!-- 8 -->
<g id="node9" class="node"><title>8</title>
<path fill="none" stroke="#56d8a9" stroke-width="2" d="M110.265,-324C110.265,-324 11.9115,-324 11.9115,-324 5.91149,-324 -0.088507,-318 -0.088507,-312 -0.088507,-312 -0.088507,-300 -0.088507,-300 -0.088507,-294 5.91149,-288 11.9115,-288 11.9115,-288 110.265,-288 110.265,-288 116.265,-288 122.265,-294 122.265,-300 122.265,-300 122.265,-312 122.265,-312 122.265,-318 116.265,-324 110.265,-324"/>
<text text-anchor="middle" x="61.0884" y="-303" font-family="sans" font-size="10.00">get_SRA_by_accession</text>
</g>
<!-- 8&#45;&gt;6 -->
<g id="edge8" class="edge"><title>8&#45;&gt;6</title>
<path fill="none" stroke="grey" stroke-width="2" d="M61.0884,-287.697C61.0884,-279.983 61.0884,-270.712 61.0884,-262.112"/>
<polygon fill="grey" stroke="grey" stroke-width="2" points="64.5885,-262.104 61.0884,-252.104 57.5885,-262.104 64.5885,-262.104"/>
</g>
<!-- 8&#45;&gt;7 -->
<g id="edge10" class="edge"><title>8&#45;&gt;7</title>
<path fill="none" stroke="grey" stroke-width="2" d="M84.8187,-287.697C97.0254,-278.796 112.074,-267.823 125.273,-258.199"/>
<polygon fill="grey" stroke="grey" stroke-width="2" points="127.613,-260.824 133.631,-252.104 123.489,-255.168 127.613,-260.824"/>
</g>
<!-- 9 -->
<g id="node10" class="node"><title>9</title>
<path fill="none" stroke="#80d856" stroke-width="2" d="M209.695,-324C209.695,-324 152.482,-324 152.482,-324 146.482,-324 140.482,-318 140.482,-312 140.482,-312 140.482,-300 140.482,-300 140.482,-294 146.482,-288 152.482,-288 152.482,-288 209.695,-288 209.695,-288 215.695,-288 221.695,-294 221.695,-300 221.695,-300 221.695,-312 221.695,-312 221.695,-318 215.695,-324 209.695,-324"/>
<text text-anchor="middle" x="181.088" y="-303" font-family="sans" font-size="10.00">index_genome</text>
</g>
<!-- 9&#45;&gt;7 -->
<g id="edge9" class="edge"><title>9&#45;&gt;7</title>
<path fill="none" stroke="grey" stroke-width="2" d="M175.156,-287.697C172.482,-279.898 169.263,-270.509 166.287,-261.829"/>
<polygon fill="grey" stroke="grey" stroke-width="2" points="169.507,-260.429 162.953,-252.104 162.885,-262.699 169.507,-260.429"/>
</g>
<!-- 10 -->
<g id="node11" class="node"><title>10</title>
<path fill="none" stroke="#56d882" stroke-width="2" d="M218.43,-396C218.43,-396 143.746,-396 143.746,-396 137.746,-396 131.746,-390 131.746,-384 131.746,-384 131.746,-372 131.746,-372 131.746,-366 137.746,-360 143.746,-360 143.746,-360 218.43,-360 218.43,-360 224.43,-360 230.43,-366 230.43,-372 230.43,-372 230.43,-384 230.43,-384 230.43,-390 224.43,-396 218.43,-396"/>
<text text-anchor="middle" x="181.088" y="-375" font-family="sans" font-size="10.00">get_genome_fasta</text>
</g>
<!-- 10&#45;&gt;9 -->
<g id="edge11" class="edge"><title>10&#45;&gt;9</title>
<path fill="none" stroke="grey" stroke-width="2" d="M181.088,-359.697C181.088,-351.983 181.088,-342.712 181.088,-334.112"/>
<polygon fill="grey" stroke="grey" stroke-width="2" points="184.588,-334.104 181.088,-324.104 177.588,-334.104 184.588,-334.104"/>
</g>
</g>
</svg>
