<?xml version="1.0" encoding="UTF-8" standalone="no"?>
<!DOCTYPE svg PUBLIC "-//W3C//DTD SVG 1.1//EN"
 "http://www.w3.org/Graphics/SVG/1.1/DTD/svg11.dtd">
<!-- Generated by graphviz version 2.38.0 (20140413.2041)
 -->
<!-- Title: snakemake_dag Pages: 1 -->
<svg width="349pt" height="404pt"
 viewBox="0.00 0.00 348.50 404.00" xmlns="http://www.w3.org/2000/svg" xmlns:xlink="http://www.w3.org/1999/xlink">
<g id="graph0" class="graph" transform="scale(1 1) rotate(0) translate(4 400)">
<title>snakemake_dag</title>
<polygon fill="white" stroke="none" points="-4,4 -4,-400 344.5,-400 344.5,4 -4,4"/>
<!-- 0 -->
<g id="node1" class="node"><title>0</title>
<path fill="none" stroke="#56d8c9" stroke-width="2" d="M163.5,-252C163.5,-252 86.5,-252 86.5,-252 80.5,-252 74.5,-246 74.5,-240 74.5,-240 74.5,-228 74.5,-228 74.5,-222 80.5,-216 86.5,-216 86.5,-216 163.5,-216 163.5,-216 169.5,-216 175.5,-222 175.5,-228 175.5,-228 175.5,-240 175.5,-240 175.5,-246 169.5,-252 163.5,-252"/>
<text text-anchor="middle" x="125" y="-231.5" font-family="sans" font-size="10.00">align_to_genome</text>
</g>
<!-- 3 -->
<g id="node4" class="node"><title>3</title>
<path fill="none" stroke="#56d86b" stroke-width="2" d="M137,-180C137,-180 99,-180 99,-180 93,-180 87,-174 87,-168 87,-168 87,-156 87,-156 87,-150 93,-144 99,-144 99,-144 137,-144 137,-144 143,-144 149,-150 149,-156 149,-156 149,-168 149,-168 149,-174 143,-180 137,-180"/>
<text text-anchor="middle" x="118" y="-159.5" font-family="sans" font-size="10.00">sort_bam</text>
</g>
<!-- 0&#45;&gt;3 -->
<g id="edge6" class="edge"><title>0&#45;&gt;3</title>
<path fill="none" stroke="grey" stroke-width="2" d="M123.27,-215.697C122.498,-207.983 121.571,-198.712 120.711,-190.112"/>
<polygon fill="grey" stroke="grey" stroke-width="2" points="124.188,-189.706 119.71,-180.104 117.223,-190.403 124.188,-189.706"/>
</g>
<!-- 1 -->
<g id="node2" class="node"><title>1</title>
<path fill="none" stroke="#70d856" stroke-width="2" d="M206,-36C206,-36 176,-36 176,-36 170,-36 164,-30 164,-24 164,-24 164,-12 164,-12 164,-6 170,-0 176,-0 176,-0 206,-0 206,-0 212,-0 218,-6 218,-12 218,-12 218,-24 218,-24 218,-30 212,-36 206,-36"/>
<text text-anchor="middle" x="191" y="-15.5" font-family="sans" font-size="10.00">all</text>
</g>
<!-- 2 -->
<g id="node3" class="node"><title>2</title>
<path fill="none" stroke="#9fd856" stroke-width="2" d="M100,-108C100,-108 12,-108 12,-108 6,-108 0,-102 0,-96 0,-96 0,-84 0,-84 0,-78 6,-72 12,-72 12,-72 100,-72 100,-72 106,-72 112,-78 112,-84 112,-84 112,-96 112,-96 112,-102 106,-108 100,-108"/>
<text text-anchor="middle" x="56" y="-87.5" font-family="sans" font-size="10.00">generate_rulegraph</text>
</g>
<!-- 2&#45;&gt;1 -->
<g id="edge3" class="edge"><title>2&#45;&gt;1</title>
<path fill="none" stroke="grey" stroke-width="2" d="M89.0247,-71.8761C108.926,-61.5567 134.293,-48.4034 154.748,-37.7973"/>
<polygon fill="grey" stroke="grey" stroke-width="2" points="156.497,-40.8331 163.763,-33.1228 153.275,-34.6188 156.497,-40.8331"/>
</g>
<!-- 10 -->
<g id="node11" class="node"><title>10</title>
<path fill="none" stroke="#d88556" stroke-width="2" d="M240,-108C240,-108 142,-108 142,-108 136,-108 130,-102 130,-96 130,-96 130,-84 130,-84 130,-78 136,-72 142,-72 142,-72 240,-72 240,-72 246,-72 252,-78 252,-84 252,-84 252,-96 252,-96 252,-102 246,-108 240,-108"/>
<text text-anchor="middle" x="191" y="-87.5" font-family="sans" font-size="10.00">generate_count_table</text>
</g>
<!-- 3&#45;&gt;10 -->
<g id="edge11" class="edge"><title>3&#45;&gt;10</title>
<path fill="none" stroke="grey" stroke-width="2" d="M136.045,-143.697C145.062,-135.05 156.118,-124.449 165.943,-115.027"/>
<polygon fill="grey" stroke="grey" stroke-width="2" points="168.367,-117.552 173.163,-108.104 163.522,-112.499 168.367,-117.552"/>
</g>
<!-- 4 -->
<g id="node5" class="node"><title>4</title>
<path fill="none" stroke="#d8b456" stroke-width="2" d="M256.5,-180C256.5,-180 179.5,-180 179.5,-180 173.5,-180 167.5,-174 167.5,-168 167.5,-168 167.5,-156 167.5,-156 167.5,-150 173.5,-144 179.5,-144 179.5,-144 256.5,-144 256.5,-144 262.5,-144 268.5,-150 268.5,-156 268.5,-156 268.5,-168 268.5,-168 268.5,-174 262.5,-180 256.5,-180"/>
<text text-anchor="middle" x="218" y="-159.5" font-family="sans" font-size="10.00">get_genome_gff3</text>
</g>
<!-- 4&#45;&gt;10 -->
<g id="edge10" class="edge"><title>4&#45;&gt;10</title>
<path fill="none" stroke="grey" stroke-width="2" d="M211.326,-143.697C208.285,-135.813 204.617,-126.304 201.239,-117.546"/>
<polygon fill="grey" stroke="grey" stroke-width="2" points="204.462,-116.175 197.597,-108.104 197.931,-118.694 204.462,-116.175"/>
</g>
<!-- 5 -->
<g id="node6" class="node"><title>5</title>
<path fill="none" stroke="#56d89a" stroke-width="2" d="M157.5,-324C157.5,-324 92.5,-324 92.5,-324 86.5,-324 80.5,-318 80.5,-312 80.5,-312 80.5,-300 80.5,-300 80.5,-294 86.5,-288 92.5,-288 92.5,-288 157.5,-288 157.5,-288 163.5,-288 169.5,-294 169.5,-300 169.5,-300 169.5,-312 169.5,-312 169.5,-318 163.5,-324 157.5,-324"/>
<text text-anchor="middle" x="125" y="-303.5" font-family="sans" font-size="10.00">index_genome</text>
</g>
<!-- 5&#45;&gt;0 -->
<g id="edge1" class="edge"><title>5&#45;&gt;0</title>
<path fill="none" stroke="grey" stroke-width="2" d="M125,-287.697C125,-279.983 125,-270.712 125,-262.112"/>
<polygon fill="grey" stroke="grey" stroke-width="2" points="128.5,-262.104 125,-252.104 121.5,-262.104 128.5,-262.104"/>
</g>
<!-- 6 -->
<g id="node7" class="node"><title>6</title>
<path fill="none" stroke="#ced856" stroke-width="2" d="M305,-252C305,-252 275,-252 275,-252 269,-252 263,-246 263,-240 263,-240 263,-228 263,-228 263,-222 269,-216 275,-216 275,-216 305,-216 305,-216 311,-216 317,-222 317,-228 317,-228 317,-240 317,-240 317,-246 311,-252 305,-252"/>
<text text-anchor="middle" x="290" y="-231.5" font-family="sans" font-size="10.00">fastqc</text>
</g>
<!-- 9 -->
<g id="node10" class="node"><title>9</title>
<path fill="none" stroke="#56b1d8" stroke-width="2" d="M312,-108C312,-108 282,-108 282,-108 276,-108 270,-102 270,-96 270,-96 270,-84 270,-84 270,-78 276,-72 282,-72 282,-72 312,-72 312,-72 318,-72 324,-78 324,-84 324,-84 324,-96 324,-96 324,-102 318,-108 312,-108"/>
<text text-anchor="middle" x="297" y="-87.5" font-family="sans" font-size="10.00">multiqc</text>
</g>
<!-- 6&#45;&gt;9 -->
<g id="edge9" class="edge"><title>6&#45;&gt;9</title>
<path fill="none" stroke="grey" stroke-width="2" d="M290.844,-215.871C292.037,-191.67 294.229,-147.211 295.65,-118.393"/>
<polygon fill="grey" stroke="grey" stroke-width="2" points="299.156,-118.349 296.153,-108.189 292.164,-118.005 299.156,-118.349"/>
</g>
<!-- 7 -->
<g id="node8" class="node"><title>7</title>
<path fill="none" stroke="#5682d8" stroke-width="2" d="M166.5,-396C166.5,-396 83.5,-396 83.5,-396 77.5,-396 71.5,-390 71.5,-384 71.5,-384 71.5,-372 71.5,-372 71.5,-366 77.5,-360 83.5,-360 83.5,-360 166.5,-360 166.5,-360 172.5,-360 178.5,-366 178.5,-372 178.5,-372 178.5,-384 178.5,-384 178.5,-390 172.5,-396 166.5,-396"/>
<text text-anchor="middle" x="125" y="-375.5" font-family="sans" font-size="10.00">get_genome_fasta</text>
</g>
<!-- 7&#45;&gt;5 -->
<g id="edge7" class="edge"><title>7&#45;&gt;5</title>
<path fill="none" stroke="grey" stroke-width="2" d="M125,-359.697C125,-351.983 125,-342.712 125,-334.112"/>
<polygon fill="grey" stroke="grey" stroke-width="2" points="128.5,-334.104 125,-324.104 121.5,-334.104 128.5,-334.104"/>
</g>
<!-- 8 -->
<g id="node9" class="node"><title>8</title>
<path fill="none" stroke="#d85656" stroke-width="2" d="M328.5,-324C328.5,-324 225.5,-324 225.5,-324 219.5,-324 213.5,-318 213.5,-312 213.5,-312 213.5,-300 213.5,-300 213.5,-294 219.5,-288 225.5,-288 225.5,-288 328.5,-288 328.5,-288 334.5,-288 340.5,-294 340.5,-300 340.5,-300 340.5,-312 340.5,-312 340.5,-318 334.5,-324 328.5,-324"/>
<text text-anchor="middle" x="277" y="-303.5" font-family="sans" font-size="10.00">get_SRA_by_accession</text>
</g>
<!-- 8&#45;&gt;0 -->
<g id="edge2" class="edge"><title>8&#45;&gt;0</title>
<path fill="none" stroke="grey" stroke-width="2" d="M239.817,-287.876C219.13,-278.349 193.198,-266.407 171.215,-256.283"/>
<polygon fill="grey" stroke="grey" stroke-width="2" points="172.61,-253.072 162.063,-252.068 169.682,-259.43 172.61,-253.072"/>
</g>
<!-- 8&#45;&gt;6 -->
<g id="edge8" class="edge"><title>8&#45;&gt;6</title>
<path fill="none" stroke="grey" stroke-width="2" d="M280.213,-287.697C281.646,-279.983 283.368,-270.712 284.965,-262.112"/>
<polygon fill="grey" stroke="grey" stroke-width="2" points="288.439,-262.575 286.823,-252.104 281.556,-261.297 288.439,-262.575"/>
</g>
<!-- 9&#45;&gt;1 -->
<g id="edge4" class="edge"><title>9&#45;&gt;1</title>
<path fill="none" stroke="grey" stroke-width="2" d="M271.069,-71.8761C257.338,-62.8083 240.294,-51.5523 225.464,-41.7592"/>
<polygon fill="grey" stroke="grey" stroke-width="2" points="227.304,-38.7798 217.03,-36.1898 223.446,-44.621 227.304,-38.7798"/>
</g>
<!-- 10&#45;&gt;1 -->
<g id="edge5" class="edge"><title>10&#45;&gt;1</title>
<path fill="none" stroke="grey" stroke-width="2" d="M191,-71.6966C191,-63.9827 191,-54.7125 191,-46.1124"/>
<polygon fill="grey" stroke="grey" stroke-width="2" points="194.5,-46.1043 191,-36.1043 187.5,-46.1044 194.5,-46.1043"/>
</g>
</g>
</svg>
