<?xml version="1.0" encoding="UTF-8" standalone="no"?>
<!DOCTYPE svg PUBLIC "-//W3C//DTD SVG 1.1//EN"
 "http://www.w3.org/Graphics/SVG/1.1/DTD/svg11.dtd">
<!-- Generated by graphviz version 2.38.0 (20140413.2041)
 -->
<!-- Title: snakemake_dag Pages: 1 -->
<svg width="137pt" height="116pt"
 viewBox="0.00 0.00 137.00 116.00" xmlns="http://www.w3.org/2000/svg" xmlns:xlink="http://www.w3.org/1999/xlink">
<g id="graph0" class="graph" transform="scale(1 1) rotate(0) translate(4 112)">
<title>snakemake_dag</title>
<polygon fill="white" stroke="none" points="-4,4 -4,-112 133,-112 133,4 -4,4"/>
<!-- 0 -->
<g id="node1" class="node"><title>0</title>
<path fill="none" stroke="#d85656" stroke-width="2" d="M103.5,-36C103.5,-36 25.5,-36 25.5,-36 19.5,-36 13.5,-30 13.5,-24 13.5,-24 13.5,-12 13.5,-12 13.5,-6 19.5,-0 25.5,-0 25.5,-0 103.5,-0 103.5,-0 109.5,-0 115.5,-6 115.5,-12 115.5,-12 115.5,-24 115.5,-24 115.5,-30 109.5,-36 103.5,-36"/>
<text text-anchor="middle" x="64.5" y="-15.5" font-family="sans" font-size="10.00">concatenate_files</text>
</g>
<!-- 1 -->
<g id="node2" class="node"><title>1</title>
<path fill="none" stroke="#59d856" stroke-width="2" d="M117,-108C117,-108 12,-108 12,-108 6,-108 0,-102 0,-96 0,-96 0,-84 0,-84 0,-78 6,-72 12,-72 12,-72 117,-72 117,-72 123,-72 129,-78 129,-84 129,-84 129,-96 129,-96 129,-102 123,-108 117,-108"/>
<text text-anchor="middle" x="64.5" y="-87.5" font-family="sans" font-size="10.00">convert_to_upper_case</text>
</g>
<!-- 1&#45;&gt;0 -->
<g id="edge1" class="edge"><title>1&#45;&gt;0</title>
<path fill="none" stroke="grey" stroke-width="2" d="M64.5,-71.6966C64.5,-63.9827 64.5,-54.7125 64.5,-46.1124"/>
<polygon fill="grey" stroke="grey" stroke-width="2" points="68.0001,-46.1043 64.5,-36.1043 61.0001,-46.1044 68.0001,-46.1043"/>
</g>
</g>
</svg>
