<?xml version="1.0" encoding="UTF-8" standalone="no"?>
<!-- Created with Inkscape (http://www.inkscape.org/) -->

<svg
   xmlns:dc="http://purl.org/dc/elements/1.1/"
   xmlns:cc="http://creativecommons.org/ns#"
   xmlns:rdf="http://www.w3.org/1999/02/22-rdf-syntax-ns#"
   xmlns:svg="http://www.w3.org/2000/svg"
   xmlns="http://www.w3.org/2000/svg"
   xmlns:sodipodi="http://sodipodi.sourceforge.net/DTD/sodipodi-0.dtd"
   xmlns:inkscape="http://www.inkscape.org/namespaces/inkscape"
   version="1.1"
   id="svg29"
   xml:space="preserve"
   width="310.24667"
   height="199.95236"
   viewBox="0 0 310.24666 199.95236"
   sodipodi:docname="Presentation1.svg"
   inkscape:version="0.92.2 (5c3e80d, 2017-08-06)"><metadata
     id="metadata35"><rdf:RDF><cc:Work
         rdf:about=""><dc:format>image/svg+xml</dc:format><dc:type
           rdf:resource="http://purl.org/dc/dcmitype/StillImage" /><dc:title></dc:title></cc:Work></rdf:RDF></metadata><defs
     id="defs33"><clipPath
       clipPathUnits="userSpaceOnUse"
       id="clipPath49"><path
         d="M 12,68 H 830 V 528 H 12 Z"
         id="path47"
         inkscape:connector-curvature="0" /></clipPath></defs><sodipodi:namedview
     pagecolor="#ffffff"
     bordercolor="#666666"
     borderopacity="1"
     objecttolerance="10"
     gridtolerance="10"
     guidetolerance="10"
     inkscape:pageopacity="0"
     inkscape:pageshadow="2"
     inkscape:window-width="923"
     inkscape:window-height="690"
     id="namedview31"
     showgrid="false"
     inkscape:zoom="1.3504346"
     inkscape:cx="111.3669"
     inkscape:cy="137.4044"
     inkscape:window-x="0"
     inkscape:window-y="23"
     inkscape:window-maximized="0"
     inkscape:current-layer="g37" /><g
     id="g37"
     inkscape:groupmode="layer"
     inkscape:label="Presentation1"
     transform="matrix(1.3333333,0,0,-1.3333333,-23.149333,696.86835)"><path
       d="M 17.362,468.048 H 72.409 V 372.687 H 17.362 Z"
       style="fill:#d9d9d9;fill-opacity:1;fill-rule:nonzero;stroke:none"
       id="path41"
       inkscape:connector-curvature="0" /><g
       id="g43"><g
         id="g45"
         clip-path="url(#clipPath49)"><g
           id="g51"
           transform="translate(35.3016,450.8153)"><path
             d="M 0,0 C 0,4.93 3.998,8.926 8.929,8.926 13.86,8.926 17.858,4.93 17.858,0 17.858,-4.93 13.86,-8.927 8.929,-8.927 3.998,-8.927 0,-4.93 0,0"
             style="fill:#40b11f;fill-opacity:1;fill-rule:nonzero;stroke:none"
             id="path53"
             inkscape:connector-curvature="0" /></g><g
           id="g55"
           transform="matrix(8.051e-4,0,0,-8.049e-4,35.301601,459.7417)"><g
             id="g57"
             transform="translate(0,11090.125)"><path
               d="m 0,0 c 0,-6124.907 4965.218,-11090.125 11090.125,-11090.125 6124.908,0 11090.125,4965.218 11090.125,11090.125 0,6124.908 -4965.217,11090.125 -11090.125,11090.125 C 4965.218,11090.125 0,6124.908 0,0 Z"
               style="fill:none;stroke:#000000;stroke-width:1058.33300781;stroke-linecap:butt;stroke-linejoin:miter;stroke-miterlimit:8;stroke-dasharray:none;stroke-opacity:1"
               id="path59"
               inkscape:connector-curvature="0" /></g></g><g
           id="g61"
           transform="translate(25.7937,430.2114)"><path
             d="M 0,0 C 0,4.93 3.998,8.926 8.929,8.926 13.86,8.926 17.858,4.93 17.858,0 17.858,-4.93 13.86,-8.926 8.929,-8.926 3.998,-8.926 0,-4.93 0,0"
             style="fill:#f24d26;fill-opacity:1;fill-rule:nonzero;stroke:none"
             id="path63"
             inkscape:connector-curvature="0" /></g><g
           id="g65"
           transform="matrix(8.051e-4,0,0,-8.049e-4,25.793751,439.13779)"><g
             id="g67"
             transform="translate(0,11090.125)"><path
               d="m 0,0 c 0,-6124.907 4965.218,-11090.125 11090.125,-11090.125 6124.908,0 11090.125,4965.218 11090.125,11090.125 0,6124.908 -4965.217,11090.125 -11090.125,11090.125 C 4965.218,11090.125 0,6124.908 0,0 Z"
               style="fill:none;stroke:#000000;stroke-width:1058.33300781;stroke-linecap:butt;stroke-linejoin:miter;stroke-miterlimit:8;stroke-dasharray:none;stroke-opacity:1"
               id="path69"
               inkscape:connector-curvature="0" /></g></g><g
           id="g71"
           transform="translate(46.1198,430.2114)"><path
             d="M 0,0 C 0,4.93 3.998,8.926 8.929,8.926 13.86,8.926 17.858,4.93 17.858,0 17.858,-4.93 13.86,-8.926 8.929,-8.926 3.998,-8.926 0,-4.93 0,0"
             style="fill:#a6a6a6;fill-opacity:1;fill-rule:nonzero;stroke:none"
             id="path73"
             inkscape:connector-curvature="0" /></g><g
           id="g75"
           transform="matrix(8.051e-4,0,0,-8.049e-4,46.119831,439.13779)"><g
             id="g77"
             transform="translate(0,11090.125)"><path
               d="m 0,0 c 0,-6124.907 4965.218,-11090.125 11090.125,-11090.125 6124.908,0 11090.125,4965.218 11090.125,11090.125 0,6124.908 -4965.217,11090.125 -11090.125,11090.125 C 4965.218,11090.125 0,6124.908 0,0 Z"
               style="fill:none;stroke:#000000;stroke-width:1058.33300781;stroke-linecap:butt;stroke-linejoin:miter;stroke-miterlimit:8;stroke-dasharray:none;stroke-opacity:1"
               id="path79"
               inkscape:connector-curvature="0" /></g></g><g
           id="g81"
           transform="translate(25.7937,409.2642)"><path
             d="M 0,0 C 0,4.93 3.998,8.926 8.929,8.926 13.86,8.926 17.858,4.93 17.858,0 17.858,-4.93 13.86,-8.926 8.929,-8.926 3.998,-8.926 0,-4.93 0,0"
             style="fill:#75acdb;fill-opacity:1;fill-rule:nonzero;stroke:none"
             id="path83"
             inkscape:connector-curvature="0" /></g><g
           id="g85"
           transform="matrix(8.051e-4,0,0,-8.049e-4,25.793751,418.19061)"><g
             id="g87"
             transform="translate(0,11090.125)"><path
               d="m 0,0 c 0,-6124.907 4965.218,-11090.125 11090.125,-11090.125 6124.908,0 11090.125,4965.218 11090.125,11090.125 0,6124.908 -4965.217,11090.125 -11090.125,11090.125 C 4965.218,11090.125 0,6124.908 0,0 Z"
               style="fill:none;stroke:#000000;stroke-width:1058.33300781;stroke-linecap:butt;stroke-linejoin:miter;stroke-miterlimit:8;stroke-dasharray:none;stroke-opacity:1"
               id="path89"
               inkscape:connector-curvature="0" /></g></g><g
           id="g91"
           transform="translate(46.1197,409.2131)"><path
             d="M 0,0 C 0,4.93 3.998,8.926 8.929,8.926 13.86,8.926 17.858,4.93 17.858,0 17.858,-4.93 13.86,-8.926 8.929,-8.926 3.998,-8.926 0,-4.93 0,0"
             style="fill:#f47509;fill-opacity:1;fill-rule:nonzero;stroke:none"
             id="path93"
             inkscape:connector-curvature="0" /></g><g
           id="g95"
           transform="matrix(8.051e-4,0,0,-8.049e-4,46.119701,418.1395)"><g
             id="g97"
             transform="translate(0,11090.125)"><path
               d="m 0,0 c 0,-6124.907 4965.218,-11090.125 11090.125,-11090.125 6124.908,0 11090.125,4965.218 11090.125,11090.125 0,6124.908 -4965.217,11090.125 -11090.125,11090.125 C 4965.218,11090.125 0,6124.908 0,0 Z"
               style="fill:none;stroke:#000000;stroke-width:1058.33300781;stroke-linecap:butt;stroke-linejoin:miter;stroke-miterlimit:8;stroke-dasharray:none;stroke-opacity:1"
               id="path99"
               inkscape:connector-curvature="0" /></g></g><g
           id="g101"
           transform="translate(35.3016,388.6092)"><path
             d="M 0,0 C 0,4.93 3.998,8.927 8.929,8.927 13.86,8.927 17.858,4.93 17.858,0 17.858,-4.93 13.86,-8.926 8.929,-8.926 3.998,-8.926 0,-4.93 0,0"
             style="fill:#18b9ee;fill-opacity:1;fill-rule:nonzero;stroke:none"
             id="path103"
             inkscape:connector-curvature="0" /></g><g
           id="g105"
           transform="matrix(8.051e-4,0,0,-8.049e-4,35.301601,397.53571)"><g
             id="g107"
             transform="translate(0,11090.125)"><path
               d="m 0,0 c 0,-6124.907 4965.218,-11090.125 11090.125,-11090.125 6124.908,0 11090.125,4965.218 11090.125,11090.125 0,6124.908 -4965.217,11090.125 -11090.125,11090.125 C 4965.218,11090.125 0,6124.908 0,0 Z"
               style="fill:none;stroke:#404040;stroke-width:1058.33300781;stroke-linecap:butt;stroke-linejoin:miter;stroke-miterlimit:8;stroke-dasharray:none;stroke-opacity:1"
               id="path109"
               inkscape:connector-curvature="0" /></g></g><path
           d="m 76.575,468.048 h 55.047 V 372.687 H 76.575 Z"
           style="fill:#d9d9d9;fill-opacity:1;fill-rule:nonzero;stroke:none"
           id="path111"
           inkscape:connector-curvature="0" /><g
           id="g113"
           transform="translate(94.5143,450.8153)"><path
             d="M 0,0 C 0,4.93 3.998,8.926 8.929,8.926 13.86,8.926 17.858,4.93 17.858,0 17.858,-4.93 13.86,-8.927 8.929,-8.927 3.998,-8.927 0,-4.93 0,0"
             style="fill:#40b11f;fill-opacity:1;fill-rule:nonzero;stroke:none"
             id="path115"
             inkscape:connector-curvature="0" /></g><g
           id="g117"
           transform="matrix(8.051e-4,0,0,-8.049e-4,94.514343,459.7417)"><g
             id="g119"
             transform="translate(0,11090.125)"><path
               d="m 0,0 c 0,-6124.907 4965.218,-11090.125 11090.125,-11090.125 6124.908,0 11090.125,4965.218 11090.125,11090.125 0,6124.908 -4965.217,11090.125 -11090.125,11090.125 C 4965.218,11090.125 0,6124.908 0,0 Z"
               style="fill:none;stroke:#000000;stroke-width:1058.33300781;stroke-linecap:butt;stroke-linejoin:miter;stroke-miterlimit:8;stroke-dasharray:none;stroke-opacity:1"
               id="path121"
               inkscape:connector-curvature="0" /></g></g><g
           id="g123"
           transform="translate(105.3326,430.2114)"><path
             d="M 0,0 C 0,4.93 3.998,8.926 8.929,8.926 13.86,8.926 17.858,4.93 17.858,0 17.858,-4.93 13.86,-8.926 8.929,-8.926 3.998,-8.926 0,-4.93 0,0"
             style="fill:#a6a6a6;fill-opacity:1;fill-rule:nonzero;stroke:none"
             id="path125"
             inkscape:connector-curvature="0" /></g><g
           id="g127"
           transform="matrix(8.051e-4,0,0,-8.049e-4,105.3326,439.13779)"><g
             id="g129"
             transform="translate(0,11090.125)"><path
               d="m 0,0 c 0,-6124.907 4965.218,-11090.125 11090.125,-11090.125 6124.908,0 11090.125,4965.218 11090.125,11090.125 0,6124.908 -4965.217,11090.125 -11090.125,11090.125 C 4965.218,11090.125 0,6124.908 0,0 Z"
               style="fill:none;stroke:#000000;stroke-width:1058.33300781;stroke-linecap:butt;stroke-linejoin:miter;stroke-miterlimit:8;stroke-dasharray:none;stroke-opacity:1"
               id="path131"
               inkscape:connector-curvature="0" /></g></g><path
           d="m 135.788,468.048 h 55.047 v -95.361 h -55.047 z"
           style="fill:#d9d9d9;fill-opacity:1;fill-rule:nonzero;stroke:none"
           id="path133"
           inkscape:connector-curvature="0" /><g
           id="g135"
           transform="translate(153.7271,450.8153)"><path
             d="M 0,0 C 0,4.93 3.998,8.926 8.929,8.926 13.86,8.926 17.858,4.93 17.858,0 17.858,-4.93 13.86,-8.927 8.929,-8.927 3.998,-8.927 0,-4.93 0,0"
             style="fill:#40b11f;fill-opacity:1;fill-rule:nonzero;stroke:none"
             id="path137"
             inkscape:connector-curvature="0" /></g><g
           id="g139"
           transform="matrix(8.051e-4,0,0,-8.049e-4,153.7271,459.7417)"><g
             id="g141"
             transform="translate(0,11090.125)"><path
               d="m 0,0 c 0,-6124.907 4965.218,-11090.125 11090.125,-11090.125 6124.908,0 11090.125,4965.218 11090.125,11090.125 0,6124.908 -4965.217,11090.125 -11090.125,11090.125 C 4965.218,11090.125 0,6124.908 0,0 Z"
               style="fill:none;stroke:#000000;stroke-width:1058.33300781;stroke-linecap:butt;stroke-linejoin:miter;stroke-miterlimit:8;stroke-dasharray:none;stroke-opacity:1"
               id="path143"
               inkscape:connector-curvature="0" /></g></g><g
           id="g145"
           transform="translate(144.2192,430.2114)"><path
             d="M 0,0 C 0,4.93 3.998,8.926 8.929,8.926 13.86,8.926 17.858,4.93 17.858,0 17.858,-4.93 13.86,-8.926 8.929,-8.926 3.998,-8.926 0,-4.93 0,0"
             style="fill:#f24d26;fill-opacity:1;fill-rule:nonzero;stroke:none"
             id="path147"
             inkscape:connector-curvature="0" /></g><g
           id="g149"
           transform="matrix(8.051e-4,0,0,-8.049e-4,144.21919,439.13779)"><g
             id="g151"
             transform="translate(0,11090.125)"><path
               d="m 0,0 c 0,-6124.907 4965.218,-11090.125 11090.125,-11090.125 6124.908,0 11090.125,4965.218 11090.125,11090.125 0,6124.908 -4965.217,11090.125 -11090.125,11090.125 C 4965.218,11090.125 0,6124.908 0,0 Z"
               style="fill:none;stroke:#000000;stroke-width:1058.33300781;stroke-linecap:butt;stroke-linejoin:miter;stroke-miterlimit:8;stroke-dasharray:none;stroke-opacity:1"
               id="path153"
               inkscape:connector-curvature="0" /></g></g><g
           id="g155"
           transform="translate(153.7271,388.6092)"><path
             d="M 0,0 C 0,4.93 3.998,8.927 8.929,8.927 13.86,8.927 17.858,4.93 17.858,0 17.858,-4.93 13.86,-8.926 8.929,-8.926 3.998,-8.926 0,-4.93 0,0"
             style="fill:#18b9ee;fill-opacity:1;fill-rule:nonzero;stroke:none"
             id="path157"
             inkscape:connector-curvature="0" /></g><g
           id="g159"
           transform="matrix(8.051e-4,0,0,-8.049e-4,153.7271,397.53571)"><g
             id="g161"
             transform="translate(0,11090.125)"><path
               d="m 0,0 c 0,-6124.907 4965.218,-11090.125 11090.125,-11090.125 6124.908,0 11090.125,4965.218 11090.125,11090.125 0,6124.908 -4965.217,11090.125 -11090.125,11090.125 C 4965.218,11090.125 0,6124.908 0,0 Z"
               style="fill:none;stroke:#404040;stroke-width:1058.33300781;stroke-linecap:butt;stroke-linejoin:miter;stroke-miterlimit:8;stroke-dasharray:none;stroke-opacity:1"
               id="path163"
               inkscape:connector-curvature="0" /></g></g><path
           d="m 195,468.048 h 55.047 V 372.687 H 195 Z"
           style="fill:#d9d9d9;fill-opacity:1;fill-rule:nonzero;stroke:none"
           id="path165"
           inkscape:connector-curvature="0" /><g
           id="g167"
           transform="translate(212.9398,450.8153)"><path
             d="M 0,0 C 0,4.93 3.998,8.926 8.929,8.926 13.86,8.926 17.858,4.93 17.858,0 17.858,-4.93 13.86,-8.927 8.929,-8.927 3.998,-8.927 0,-4.93 0,0"
             style="fill:#40b11f;fill-opacity:1;fill-rule:nonzero;stroke:none"
             id="path169"
             inkscape:connector-curvature="0" /></g><g
           id="g171"
           transform="matrix(8.051e-4,0,0,-8.049e-4,212.9398,459.7417)"><g
             id="g173"
             transform="translate(0,11090.125)"><path
               d="m 0,0 c 0,-6124.907 4965.218,-11090.125 11090.125,-11090.125 6124.908,0 11090.125,4965.218 11090.125,11090.125 0,6124.908 -4965.217,11090.125 -11090.125,11090.125 C 4965.218,11090.125 0,6124.908 0,0 Z"
               style="fill:none;stroke:#000000;stroke-width:1058.33300781;stroke-linecap:butt;stroke-linejoin:miter;stroke-miterlimit:8;stroke-dasharray:none;stroke-opacity:1"
               id="path175"
               inkscape:connector-curvature="0" /></g></g><g
           id="g177"
           transform="translate(203.432,409.2642)"><path
             d="M 0,0 C 0,4.93 3.998,8.926 8.929,8.926 13.86,8.926 17.858,4.93 17.858,0 17.858,-4.93 13.86,-8.926 8.929,-8.926 3.998,-8.926 0,-4.93 0,0"
             style="fill:#75acdb;fill-opacity:1;fill-rule:nonzero;stroke:none"
             id="path179"
             inkscape:connector-curvature="0" /></g><g
           id="g181"
           transform="matrix(8.051e-4,0,0,-8.049e-4,203.43201,418.19061)"><g
             id="g183"
             transform="translate(0,11090.125)"><path
               d="m 0,0 c 0,-6124.907 4965.218,-11090.125 11090.125,-11090.125 6124.908,0 11090.125,4965.218 11090.125,11090.125 0,6124.908 -4965.217,11090.125 -11090.125,11090.125 C 4965.218,11090.125 0,6124.908 0,0 Z"
               style="fill:none;stroke:#000000;stroke-width:1058.33300781;stroke-linecap:butt;stroke-linejoin:miter;stroke-miterlimit:8;stroke-dasharray:none;stroke-opacity:1"
               id="path185"
               inkscape:connector-curvature="0" /></g></g><g
           id="g187"
           transform="translate(223.7579,409.2131)"><path
             d="M 0,0 C 0,4.93 3.998,8.926 8.929,8.926 13.86,8.926 17.858,4.93 17.858,0 17.858,-4.93 13.86,-8.926 8.929,-8.926 3.998,-8.926 0,-4.93 0,0"
             style="fill:#f47509;fill-opacity:1;fill-rule:nonzero;stroke:none"
             id="path189"
             inkscape:connector-curvature="0" /></g><g
           id="g191"
           transform="matrix(8.051e-4,0,0,-8.049e-4,223.7579,418.1395)"><g
             id="g193"
             transform="translate(0,11090.125)"><path
               d="m 0,0 c 0,-6124.907 4965.218,-11090.125 11090.125,-11090.125 6124.908,0 11090.125,4965.218 11090.125,11090.125 0,6124.908 -4965.217,11090.125 -11090.125,11090.125 C 4965.218,11090.125 0,6124.908 0,0 Z"
               style="fill:none;stroke:#000000;stroke-width:1058.33300781;stroke-linecap:butt;stroke-linejoin:miter;stroke-miterlimit:8;stroke-dasharray:none;stroke-opacity:1"
               id="path195"
               inkscape:connector-curvature="0" /></g></g><text
           transform="matrix(1,0,0,-0.99972903,27.684,476.8658)"
           style="font-variant:normal;font-weight:300;font-stretch:normal;font-size:10.33329964px;font-family:Calibri;-inkscape-font-specification:Calibri-Light;writing-mode:lr-tb;fill:#000000;fill-opacity:1;fill-rule:nonzero;stroke:none"
           id="text209"><tspan
             x="0 6.1762133 11.505096 13.847655 16.089981 19.49687 21.83943 26.629948 28.872274 31.114599"
             y="0"
             sodipodi:role="line"
             id="tspan197">Do	it	all!</tspan><tspan
             x="56.574818 65.186592 70.512375 74.029831 78.497948 81.581406 83.817528 89.101982"
             y="-0.1343329"
             sodipodi:role="line"
             id="tspan199">Workflow</tspan><tspan
             x="108.60298 113.83783 118.84535 124.17733 127.50052 132.82837 138.16035 143.49234 147.85919 150.10152 155.4335 157.67583"
             y="-6.5203123"
             sodipodi:role="line"
             id="tspan201">Reproducible</tspan><tspan
             x="109.32632 114.32763 119.47672 123.9438 126.17889 129.49898 134.82373 140.14848 148.24255 153.24387 158.47562"
             y="5.4766488"
             sodipodi:role="line"
             id="tspan203">environment</tspan><tspan
             x="171.90479 174.35378 179.58243 182.89941 187.90073 191.21771 196.01237 200.38335 203.79335 206.02431 210.40562 215.40694"
             y="-6.5203123"
             sodipodi:role="line"
             id="tspan205">Interactive	</tspan><tspan
             x="173.19644 178.52016 183.84181 187.15053 192.15392 197.47763 202.79929 208.12093 212.49399"
             y="5.4766488"
             sodipodi:role="line"
             id="tspan207">notebooks</tspan></text>
<text
           transform="matrix(1,0,0,-0.99972927,95.4444,512.2706)"
           style="font-variant:normal;font-weight:300;font-stretch:normal;font-size:13.66670036px;font-family:Calibri;-inkscape-font-specification:Calibri-Light;writing-mode:lr-tb;fill:#000000;fill-opacity:1;fill-rule:nonzero;stroke:none"
           id="text213"><tspan
             x="0 7.6670189 10.646359 14.99237 21.702719 26.390398 33.524414 39.783764 44.252773 47.232117 53.067795 59.778145 65.108162"
             y="0"
             sodipodi:role="line"
             id="tspan211">Alternatives:</tspan></text>
<g
           id="g215"
           transform="translate(85.1319,429.9659)"><path
             d="M 0,0 C 0,4.93 3.998,8.926 8.929,8.926 13.86,8.926 17.858,4.93 17.858,0 17.858,-4.93 13.86,-8.926 8.929,-8.926 3.998,-8.926 0,-4.93 0,0"
             style="fill:#f24d26;fill-opacity:1;fill-rule:nonzero;stroke:none"
             id="path217"
             inkscape:connector-curvature="0" /></g><g
           id="g219"
           transform="matrix(8.051e-4,0,0,-8.049e-4,85.131897,438.8923)"><g
             id="g221"
             transform="translate(0,11090.125)"><path
               d="m 0,0 c 0,-6124.907 4965.218,-11090.125 11090.125,-11090.125 6124.908,0 11090.125,4965.218 11090.125,11090.125 0,6124.908 -4965.217,11090.125 -11090.125,11090.125 C 4965.218,11090.125 0,6124.908 0,0 Z"
               style="fill:none;stroke:#000000;stroke-width:1058.33300781;stroke-linecap:butt;stroke-linejoin:miter;stroke-miterlimit:8;stroke-dasharray:none;stroke-opacity:1"
               id="path223"
               inkscape:connector-curvature="0" /></g></g></g></g></g></svg>