<?xml version="1.0" encoding="UTF-8" standalone="no"?>
<svg
   xmlns:dc="http://purl.org/dc/elements/1.1/"
   xmlns:cc="http://creativecommons.org/ns#"
   xmlns:rdf="http://www.w3.org/1999/02/22-rdf-syntax-ns#"
   xmlns:svg="http://www.w3.org/2000/svg"
   xmlns="http://www.w3.org/2000/svg"
   viewBox="0 0 345 230"
   height="230"
   width="345"
   xml:space="preserve"
   version="1.1"
   id="svg2"><metadata
     id="metadata8"><rdf:RDF><cc:Work
         rdf:about=""><dc:format>image/svg+xml</dc:format><dc:type
           rdf:resource="http://purl.org/dc/dcmitype/StillImage" /></cc:Work></rdf:RDF></metadata><defs
     id="defs6"><clipPath
       id="clipPath18"
       clipPathUnits="userSpaceOnUse"><path
         id="path20"
         d="M 0,0 276,0 276,184 0,184 0,0 Z" /></clipPath></defs><g
     transform="matrix(1.25,0,0,-1.25,0,230)"
     id="g10"><g
       id="g12" /><g
       id="g14"><g
         clip-path="url(#clipPath18)"
         id="g16"><path
           id="path22"
           style="fill:#ffffff;fill-opacity:0;fill-rule:nonzero;stroke:none"
           d="M 0,184 276,184 276,0 0,0 0,184 Z" /><path
           id="path24"
           style="fill:#d9d9d9;fill-opacity:1;fill-rule:nonzero;stroke:none"
           d="m 0,112 65,0 0,-112.000003559981 -65,0 L 0,112 Z" /><path
           id="path26"
           style="fill:#40b11f;fill-opacity:1;fill-rule:nonzero;stroke:none"
           d="m 21.5,91 c 0,5.79899 4.70101,10.5 10.5,10.5 5.79899,0 10.5,-4.70101 10.5,-10.5 0,-5.79899 -4.70101,-10.5 -10.5,-10.5 -5.79899,0 -10.5,4.70101 -10.5,10.5 z" /><g
           transform="matrix(7.874016e-5,0,0,-7.874016e-5,21.5,101.5)"
           id="g28"><path
             id="path30"
             style="fill:none;stroke:#000000;stroke-width:12700;stroke-linecap:butt;stroke-linejoin:miter;stroke-miterlimit:8;stroke-dasharray:none;stroke-opacity:1"
             d="M 0,133350 C 0,59702.82 59702.82,0 133350,0 c 73647.2,0 133350,59702.82 133350,133350 0,73647.2 -59702.8,133350 -133350,133350 C 59702.82,266700 0,206997.2 0,133350 Z" /></g><path
           id="path32"
           style="fill:#f24d26;fill-opacity:1;fill-rule:nonzero;stroke:none"
           d="m 10.5,67 c 0,5.79899 4.70101,10.5 10.5,10.5 5.79899,0 10.5,-4.70101 10.5,-10.5 0,-5.79899 -4.70101,-10.5 -10.5,-10.5 -5.79899,0 -10.5,4.70101 -10.5,10.5 z" /><g
           transform="matrix(7.874016e-5,0,0,-7.874016e-5,10.5,77.5)"
           id="g34"><path
             id="path36"
             style="fill:none;stroke:#000000;stroke-width:12700;stroke-linecap:butt;stroke-linejoin:miter;stroke-miterlimit:8;stroke-dasharray:none;stroke-opacity:1"
             d="M 0,133350 C 0,59702.82 59702.82,0 133350,0 c 73647.2,0 133350,59702.82 133350,133350 0,73647.2 -59702.8,133350 -133350,133350 C 59702.82,266700 0,206997.2 0,133350 Z" /></g><path
           id="path38"
           style="fill:#a6a6a6;fill-opacity:1;fill-rule:nonzero;stroke:none"
           d="m 34.5,67 c 0,5.79899 4.70101,10.5 10.5,10.5 5.79899,0 10.5,-4.70101 10.5,-10.5 0,-5.79899 -4.70101,-10.5 -10.5,-10.5 -5.79899,0 -10.5,4.70101 -10.5,10.5 z" /><g
           transform="matrix(7.874016e-5,0,0,-7.874016e-5,34.5,77.5)"
           id="g40"><path
             id="path42"
             style="fill:none;stroke:#000000;stroke-width:12700;stroke-linecap:butt;stroke-linejoin:miter;stroke-miterlimit:8;stroke-dasharray:none;stroke-opacity:1"
             d="M 0,133350 C 0,59702.82 59702.82,0 133350,0 c 73647.2,0 133350,59702.82 133350,133350 0,73647.2 -59702.8,133350 -133350,133350 C 59702.82,266700 0,206997.2 0,133350 Z" /></g><path
           id="path44"
           style="fill:#75acdb;fill-opacity:1;fill-rule:nonzero;stroke:none"
           d="m 10.5,43 c 0,5.79899 4.70101,10.5 10.5,10.5 5.79899,0 10.5,-4.70101 10.5,-10.5 0,-5.79899 -4.70101,-10.5 -10.5,-10.5 -5.79899,0 -10.5,4.70101 -10.5,10.5 z" /><g
           transform="matrix(7.874016e-5,0,0,-7.874016e-5,10.5,53.5)"
           id="g46"><path
             id="path48"
             style="fill:none;stroke:#000000;stroke-width:12700;stroke-linecap:butt;stroke-linejoin:miter;stroke-miterlimit:8;stroke-dasharray:none;stroke-opacity:1"
             d="M 0,133350 C 0,59702.82 59702.82,0 133350,0 c 73647.2,0 133350,59702.82 133350,133350 0,73647.2 -59702.8,133350 -133350,133350 C 59702.82,266700 0,206997.2 0,133350 Z" /></g><path
           id="path50"
           style="fill:#f47509;fill-opacity:1;fill-rule:nonzero;stroke:none"
           d="m 34.5,43 c 0,5.79899 4.70101,10.5 10.5,10.5 5.79899,0 10.5,-4.70101 10.5,-10.5 0,-5.79899 -4.70101,-10.5 -10.5,-10.5 -5.79899,0 -10.5,4.70101 -10.5,10.5 z" /><g
           transform="matrix(7.874016e-5,0,0,-7.874016e-5,34.5,53.5)"
           id="g52"><path
             id="path54"
             style="fill:none;stroke:#000000;stroke-width:12700;stroke-linecap:butt;stroke-linejoin:miter;stroke-miterlimit:8;stroke-dasharray:none;stroke-opacity:1"
             d="M 0,133350 C 0,59702.82 59702.82,0 133350,0 c 73647.2,0 133350,59702.82 133350,133350 0,73647.2 -59702.8,133350 -133350,133350 C 59702.82,266700 0,206997.2 0,133350 Z" /></g><path
           id="path56"
           style="fill:#18b9ee;fill-opacity:1;fill-rule:nonzero;stroke:none"
           d="m 21.5,18 c 0,5.79899 4.70101,10.5 10.5,10.5 5.79899,0 10.5,-4.70101 10.5,-10.5 C 42.5,12.20101 37.79899,7.5 32,7.5 26.20101,7.5 21.5,12.20101 21.5,18 Z" /><g
           transform="matrix(7.874016e-5,0,0,-7.874016e-5,21.5,28.5)"
           id="g58"><path
             id="path60"
             style="fill:none;stroke:#404040;stroke-width:12700;stroke-linecap:butt;stroke-linejoin:miter;stroke-miterlimit:8;stroke-dasharray:none;stroke-opacity:1"
             d="M 0,133350 C 0,59702.82 59702.82,0 133350,0 c 73647.2,0 133350,59702.82 133350,133350 0,73647.2 -59702.8,133350 -133350,133350 C 59702.82,266700 0,206997.2 0,133350 Z" /></g><path
           id="path62"
           style="fill:#d9d9d9;fill-opacity:1;fill-rule:nonzero;stroke:none"
           d="m 70,112 64,0 0,-112.000003559981 -64,0 L 70,112 Z" /><path
           id="path64"
           style="fill:#40b11f;fill-opacity:1;fill-rule:nonzero;stroke:none"
           d="m 91.5,91 c 0,5.79899 4.70101,10.5 10.5,10.5 5.799,0 10.5,-4.70101 10.5,-10.5 0,-5.79899 -4.701,-10.5 -10.5,-10.5 -5.79899,0 -10.5,4.70101 -10.5,10.5 z" /><g
           transform="matrix(7.874016e-5,0,0,-7.874016e-5,91.5,101.5)"
           id="g66"><path
             id="path68"
             style="fill:none;stroke:#000000;stroke-width:12700;stroke-linecap:butt;stroke-linejoin:miter;stroke-miterlimit:8;stroke-dasharray:none;stroke-opacity:1"
             d="M 0,133350 C 0,59702.82 59702.82,0 133350,0 c 73647.2,0 133350,59702.82 133350,133350 0,73647.2 -59702.8,133350 -133350,133350 C 59702.82,266700 0,206997.2 0,133350 Z" /></g><path
           id="path70"
           style="fill:#a6a6a6;fill-opacity:1;fill-rule:nonzero;stroke:none"
           d="m 104.5,67 c 0,5.79899 4.4772,10.5 10,10.5 5.5228,0 10,-4.70101 10,-10.5 0,-5.79899 -4.4772,-10.5 -10,-10.5 -5.5228,0 -10,4.70101 -10,10.5 z" /><g
           transform="matrix(7.874016e-5,0,0,-7.874016e-5,104.5,77.5)"
           id="g72"><path
             id="path74"
             style="fill:none;stroke:#000000;stroke-width:12700;stroke-linecap:butt;stroke-linejoin:miter;stroke-miterlimit:8;stroke-dasharray:none;stroke-opacity:1"
             d="M 0,133350 C 0,59702.82 56859.84,0 127000,0 c 70140.2,0 127000,59702.82 127000,133350 0,73647.2 -56859.8,133350 -127000,133350 C 56859.84,266700 0,206997.2 0,133350 Z" /></g><path
           id="path76"
           style="fill:#d9d9d9;fill-opacity:1;fill-rule:nonzero;stroke:none"
           d="m 139,112 65,0 0,-112.000003559981 -65,0 L 139,112 Z" /><path
           id="path78"
           style="fill:#40b11f;fill-opacity:1;fill-rule:nonzero;stroke:none"
           d="m 160.5,91 c 0,5.79899 4.701,10.5 10.5,10.5 5.799,0 10.5,-4.70101 10.5,-10.5 0,-5.79899 -4.701,-10.5 -10.5,-10.5 -5.799,0 -10.5,4.70101 -10.5,10.5 z" /><g
           transform="matrix(7.874016e-5,0,0,-7.874016e-5,160.5,101.5)"
           id="g80"><path
             id="path82"
             style="fill:none;stroke:#000000;stroke-width:12700;stroke-linecap:butt;stroke-linejoin:miter;stroke-miterlimit:8;stroke-dasharray:none;stroke-opacity:1"
             d="M 0,133350 C 0,59702.82 59702.82,0 133350,0 c 73647.2,0 133350,59702.82 133350,133350 0,73647.2 -59702.8,133350 -133350,133350 C 59702.82,266700 0,206997.2 0,133350 Z" /></g><path
           id="path84"
           style="fill:#f24d26;fill-opacity:1;fill-rule:nonzero;stroke:none"
           d="m 149.5,67 c 0,5.79899 4.701,10.5 10.5,10.5 5.799,0 10.5,-4.70101 10.5,-10.5 0,-5.79899 -4.701,-10.5 -10.5,-10.5 -5.799,0 -10.5,4.70101 -10.5,10.5 z" /><g
           transform="matrix(7.874016e-5,0,0,-7.874016e-5,149.5,77.5)"
           id="g86"><path
             id="path88"
             style="fill:none;stroke:#000000;stroke-width:12700;stroke-linecap:butt;stroke-linejoin:miter;stroke-miterlimit:8;stroke-dasharray:none;stroke-opacity:1"
             d="M 0,133350 C 0,59702.82 59702.82,0 133350,0 c 73647.2,0 133350,59702.82 133350,133350 0,73647.2 -59702.8,133350 -133350,133350 C 59702.82,266700 0,206997.2 0,133350 Z" /></g><path
           id="path90"
           style="fill:#18b9ee;fill-opacity:1;fill-rule:nonzero;stroke:none"
           d="m 160.5,18 c 0,5.79899 4.701,10.5 10.5,10.5 5.799,0 10.5,-4.70101 10.5,-10.5 0,-5.79899 -4.701,-10.5 -10.5,-10.5 -5.799,0 -10.5,4.70101 -10.5,10.5 z" /><g
           transform="matrix(7.874016e-5,0,0,-7.874016e-5,160.5,28.5)"
           id="g92"><path
             id="path94"
             style="fill:none;stroke:#404040;stroke-width:12700;stroke-linecap:butt;stroke-linejoin:miter;stroke-miterlimit:8;stroke-dasharray:none;stroke-opacity:1"
             d="M 0,133350 C 0,59702.82 59702.82,0 133350,0 c 73647.2,0 133350,59702.82 133350,133350 0,73647.2 -59702.8,133350 -133350,133350 C 59702.82,266700 0,206997.2 0,133350 Z" /></g><path
           id="path96"
           style="fill:#d9d9d9;fill-opacity:1;fill-rule:nonzero;stroke:none"
           d="m 209,112 64,0 0,-112.000003559981 -64,0 L 209,112 Z" /><path
           id="path98"
           style="fill:#40b11f;fill-opacity:1;fill-rule:nonzero;stroke:none"
           d="m 230.5,91 c 0,5.79899 4.701,10.5 10.5,10.5 5.799,0 10.5,-4.70101 10.5,-10.5 0,-5.79899 -4.701,-10.5 -10.5,-10.5 -5.799,0 -10.5,4.70101 -10.5,10.5 z" /><g
           transform="matrix(7.874016e-5,0,0,-7.874016e-5,230.5,101.5)"
           id="g100"><path
             id="path102"
             style="fill:none;stroke:#000000;stroke-width:12700;stroke-linecap:butt;stroke-linejoin:miter;stroke-miterlimit:8;stroke-dasharray:none;stroke-opacity:1"
             d="M 0,133350 C 0,59702.82 59702.82,0 133350,0 c 73647.2,0 133350,59702.82 133350,133350 0,73647.2 -59702.8,133350 -133350,133350 C 59702.82,266700 0,206997.2 0,133350 Z" /></g><path
           id="path104"
           style="fill:#75acdb;fill-opacity:1;fill-rule:nonzero;stroke:none"
           d="m 219.5,43 c 0,5.79899 4.701,10.5 10.5,10.5 5.799,0 10.5,-4.70101 10.5,-10.5 0,-5.79899 -4.701,-10.5 -10.5,-10.5 -5.799,0 -10.5,4.70101 -10.5,10.5 z" /><g
           transform="matrix(7.874016e-5,0,0,-7.874016e-5,219.5,53.5)"
           id="g106"><path
             id="path108"
             style="fill:none;stroke:#000000;stroke-width:12700;stroke-linecap:butt;stroke-linejoin:miter;stroke-miterlimit:8;stroke-dasharray:none;stroke-opacity:1"
             d="M 0,133350 C 0,59702.82 59702.82,0 133350,0 c 73647.2,0 133350,59702.82 133350,133350 0,73647.2 -59702.8,133350 -133350,133350 C 59702.82,266700 0,206997.2 0,133350 Z" /></g><path
           id="path110"
           style="fill:#f47509;fill-opacity:1;fill-rule:nonzero;stroke:none"
           d="m 243.5,43 c 0,5.79899 4.4772,10.5 10,10.5 5.5228,0 10,-4.70101 10,-10.5 0,-5.79899 -4.4772,-10.5 -10,-10.5 -5.5228,0 -10,4.70101 -10,10.5 z" /><g
           transform="matrix(7.874016e-5,0,0,-7.874016e-5,243.5,53.5)"
           id="g112"><path
             id="path114"
             style="fill:none;stroke:#000000;stroke-width:12700;stroke-linecap:butt;stroke-linejoin:miter;stroke-miterlimit:8;stroke-dasharray:none;stroke-opacity:1"
             d="M 0,133350 C 0,59702.82 56859.84,0 127000,0 c 70140.2,0 127000,59702.82 127000,133350 0,73647.2 -56859.8,133350 -127000,133350 C 56859.84,266700 0,206997.2 0,133350 Z" /></g><g
           transform="translate(12.15685,122.8523)"
           id="g116"><text
             id="text118"
             style="font-variant:normal;font-weight:300;font-size:12px;font-family:Calibri;-inkscape-font-specification:Calibri-Light;writing-mode:lr-tb;fill:#000000;fill-opacity:1;fill-rule:nonzero;stroke:none"
             transform="scale(1,-1)"><tspan
               id="tspan120"
               y="0"
               x="0 6.9995999 13.0032 16.0068 19.010401 23.01 26.013599 32.0172 35.020802 38.024399">Do	it	all!</tspan></text>
</g><g
           transform="translate(78.52614,123.0152)"
           id="g122"><text
             id="text124"
             style="font-variant:normal;font-weight:300;font-size:12px;font-family:Calibri;-inkscape-font-specification:Calibri-Light;writing-mode:lr-tb;fill:#000000;fill-opacity:1;fill-rule:nonzero;stroke:none"
             transform="scale(1,-1)"><tspan
               id="tspan126"
               y="0"
               x="0 9.9996004 16.003201 20.0028 24.9984 28.997999 32.001598 38.005199">Workflow</tspan></text>
</g><g
           transform="translate(139.5154,130.5174)"
           id="g128"><text
             id="text130"
             style="font-variant:normal;font-weight:300;font-size:12px;font-family:Calibri;-inkscape-font-specification:Calibri-Light;writing-mode:lr-tb;fill:#000000;fill-opacity:1;fill-rule:nonzero;stroke:none"
             transform="scale(1,-1)"><tspan
               id="tspan132"
               y="0"
               x="0 6 12 18 21.996 27.996 33.995998 39.995998 45 48 54 57">Reproducible</tspan></text>
</g><g
           transform="translate(140.5154,115.5174)"
           id="g134"><text
             id="text136"
             style="font-variant:normal;font-weight:300;font-size:12px;font-family:Calibri;-inkscape-font-specification:Calibri-Light;writing-mode:lr-tb;fill:#000000;fill-opacity:1;fill-rule:nonzero;stroke:none"
             transform="scale(1,-1)"><tspan
               id="tspan138"
               y="0"
               x="0 6 12 17.004 20.004 24 30 36 45 51 57">environment</tspan></text>
</g><g
           transform="translate(213.882,130.5174)"
           id="g140"><text
             id="text142"
             style="font-variant:normal;font-weight:300;font-size:12px;font-family:Calibri;-inkscape-font-specification:Calibri-Light;writing-mode:lr-tb;fill:#000000;fill-opacity:1;fill-rule:nonzero;stroke:none"
             transform="scale(1,-1)"><tspan
               id="tspan144"
               y="0"
               x="0 3 9 12.996 18.996 22.992001 28.992001 33.995998 37.992001 40.992001 45.995998 51.995998">Interactive	</tspan></text>
</g><g
           transform="translate(215.882,115.5174)"
           id="g146"><text
             id="text148"
             style="font-variant:normal;font-weight:300;font-size:12px;font-family:Calibri;-inkscape-font-specification:Calibri-Light;writing-mode:lr-tb;fill:#000000;fill-opacity:1;fill-rule:nonzero;stroke:none"
             transform="scale(1,-1)"><tspan
               id="tspan150"
               y="0"
               x="0 6 12 15.996 21.996 27.996 33.995998 39.995998 45">notebooks</tspan></text>
</g><g
           transform="translate(91.29031,163.9457)"
           id="g152"><text
             id="text154"
             style="font-variant:normal;font-weight:300;font-size:16px;font-family:Calibri;-inkscape-font-specification:Calibri-Light;writing-mode:lr-tb;fill:#000000;fill-opacity:1;fill-rule:nonzero;stroke:none"
             transform="scale(1,-1)"><tspan
               id="tspan156"
               y="0"
               x="0 9 13.008 18.007999 26.016001 32.023998 40.015999 48.023998 53.023998 57.032001 64.031998 72.040001 78.031998">Alternatives:</tspan></text>
</g><path
           id="path158"
           style="fill:#f24d26;fill-opacity:1;fill-rule:nonzero;stroke:none"
           d="m 80.5,67 c 0,5.79899 4.70101,10.5 10.5,10.5 5.79899,0 10.5,-4.70101 10.5,-10.5 0,-5.79899 -4.70101,-10.5 -10.5,-10.5 -5.79899,0 -10.5,4.70101 -10.5,10.5 z" /><g
           transform="matrix(7.874016e-5,0,0,-7.874016e-5,80.5,77.5)"
           id="g160"><path
             id="path162"
             style="fill:none;stroke:#000000;stroke-width:12700;stroke-linecap:butt;stroke-linejoin:miter;stroke-miterlimit:8;stroke-dasharray:none;stroke-opacity:1"
             d="M 0,133350 C 0,59702.82 59702.82,0 133350,0 c 73647.2,0 133350,59702.82 133350,133350 0,73647.2 -59702.8,133350 -133350,133350 C 59702.82,266700 0,206997.2 0,133350 Z" /></g></g></g></g></svg>